<svg t="1590647085961" class="icon" viewBox="0 0 1024 1024" version="1.1" xmlns="http://www.w3.org/2000/svg" p-id="1162"
     width="200" height="200">
  <path
    d="M651.328 824a48.128 48.128 0 0 0-48-48H112v-528h491.2a48 48 0 0 0 0-96H64a48 48 0 0 0-48 48v624c0 26.432 21.504 48 48 48h539.328c26.432 0 48-21.568 48-48zM960 152h-92.928a48 48 0 0 0 0 96h44.928v528h-44.288c-26.432 0-48 21.568-48 48s21.568 48 48 48H960c26.432 0 48-21.568 48-48v-624a48 48 0 0 0-48-48z"
    p-id="1163"></path>
  <path
    d="M832.704 920h-48.704V104h48.32a48 48 0 0 0 0-96H639.36a48 48 0 0 0 0 96h48.64v816h-48.64c-26.432 0-48 21.568-48 48s21.568 48 48 48h193.28a48.064 48.064 0 0 0 34.048-81.856 47.488 47.488 0 0 0-33.984-14.144z"
    p-id="1164"></path>
</svg>
